<?xml version="1.0" encoding="UTF-8" standalone="no"?>
<!DOCTYPE svg PUBLIC "-//W3C//DTD SVG 1.1//EN" "http://www.w3.org/Graphics/SVG/1.1/DTD/svg11.dtd">
<svg width="100%" height="100%" viewBox="0 0 100 100" version="1.1" xmlns="http://www.w3.org/2000/svg" xmlns:xlink="http://www.w3.org/1999/xlink" xml:space="preserve" style="fill-rule:evenodd;clip-rule:evenodd;stroke-linejoin:round;stroke-miterlimit:1.41421;">
    <g transform="matrix(0.132496,0.378285,-0.378285,0.132496,197.642,-481.945)">
        <path d="M1185.84,866.135C1170.23,871.945 1152.39,866.374 1152.39,866.374L1152.39,865.26C1200.37,874.433 1206.69,830.547 1209.17,809.475C1211.65,788.275 1223.92,773.896 1238.8,758.401C1253.8,742.779 1264.95,724.927 1250.57,717.492C1235.94,709.804 1226.89,721.087 1216.85,736.953C1210.03,747.86 1204.83,753.066 1202.35,755.053L1200.86,754.062C1203.59,751.829 1208.92,745.384 1218.09,727.904C1233.59,698.278 1262.6,708.814 1264.83,725.175C1267.18,741.664 1242.64,765.093 1234.09,774.639C1225.65,784.06 1219.21,797.573 1216.98,806.25C1214.75,814.929 1214.75,836.872 1199.37,856.334C1196.03,860.549 1191.94,863.397 1187.6,865.383L1187.6,866.126L1187.6,866.126C1187.43,873.875 1183.09,891.193 1150.53,896.248C1109.75,902.449 1087.56,888.193 1087.18,864.141L1088.79,864.141C1089.79,871.332 1094.87,888.813 1124.87,888.937C1160.98,889.184 1182.79,884.865 1185.84,866.135ZM1049.71,741.357L1049.75,741.166C1074.79,746.992 1085.2,768.315 1085.2,768.315C1093.38,706.829 1138.14,713.521 1145.95,732.24C1146.44,733.231 1146.69,734.222 1147.18,735.217C1147.31,735.217 1147.56,735.217 1147.68,735.217L1147.93,737.82C1153.26,755.548 1149.79,777.862 1142.35,802.406C1140.49,808.355 1138.13,812.942 1135.04,816.415C1148.3,833.152 1158.46,811.58 1163.3,802.406C1168.39,792.985 1180.04,761.373 1173.84,748.608C1169.13,739.058 1154.62,737.82 1148.05,737.82L1147.81,735.342C1167.52,733.357 1178.18,737.944 1181.4,749.846L1182.02,749.846L1181.89,752.056L1182.02,749.971C1190.08,750.094 1196.27,751.704 1200.86,754.186L1202.35,755.177C1212.76,761.992 1213.13,775.01 1207.43,790.632C1198.75,813.691 1188.22,824.474 1175.94,826.579C1167.02,828.069 1163.05,821.621 1161.69,818.029L1163.8,817.158C1173.34,830.299 1184.25,816.662 1188.34,809.97C1192.68,803.026 1206.32,779.967 1204.33,767.449C1202.85,757.904 1188.34,753.689 1181.89,752.075L1181.89,752.076C1183.01,758.153 1182.64,765.96 1180.65,775.381C1176.81,794.1 1170.24,807.736 1163.17,816.291C1163.3,816.539 1163.67,816.91 1163.8,817.034L1161.69,817.905C1157.1,822.987 1152.27,825.712 1147.81,826.331C1139.75,827.326 1135.16,821.992 1133.05,818.524C1122.27,829.06 1107.02,827.074 1099.83,818.524C1089.79,807.117 1102.18,777.491 1102.18,777.491C1091.28,759.267 1103.3,746.374 1103.3,746.374C1095.37,768.07 1106.77,776.377 1106.77,776.377C1097.47,807.612 1101.69,818.897 1117.68,817.529C1133.67,816.291 1140.37,783.564 1141.86,753.69C1143.34,723.688 1120.9,718.729 1104.17,735.961C1087.45,753.179 1088.67,792.797 1088.67,792.86L1087.43,792.86C1083.38,761.538 1064.96,747.863 1049.56,744.121L1049.5,744.394C1044.29,743.152 1039.46,743.152 1035.61,744.023C1020.74,747.243 1012.68,768.938 1029.66,777.245C1046.52,785.424 1062.39,792.12 1069.83,817.036C1077.27,841.956 1073.05,849.639 1099.46,862.285C1125.61,874.931 1147.8,852.863 1148.3,852.244C1136.15,871.458 1114.33,871.458 1102.31,868.357C1098.22,867.612 1093.51,866.374 1089.04,864.141L1087.31,864.141C1087.31,863.893 1087.31,863.522 1087.31,863.274C1078.51,858.192 1069.58,848.647 1064.62,826.58C1056.93,791.624 1037.47,787.285 1033.01,784.804C1028.42,782.326 1018.13,778.236 1015.91,769.929C1013.55,761.374 1020.99,735.963 1047.76,741.046C1048.39,741.149 1049.01,741.253 1049.71,741.357Z" style="fill:rgb(1,1,1);"/>
    </g>
</svg>
